<svg width="60" height="16" viewBox="0 0 60 16" fill="none" xmlns="http://www.w3.org/2000/svg">
<path d="M59.7852 7.98115C59.7246 8.1187 59.0371 8.57105 58.8735 8.68656L56.772 10.1688L51.42 13.9415C50.4627 14.6156 49.443 15.3086 48.5045 16C48.6617 15.7226 48.97 15.2839 49.1513 15.0092L50.4179 13.1016C51.2788 11.8126 52.2123 10.3421 53.1014 9.09017C52.4327 9.05412 51.6165 9.07548 50.9385 9.07548L47.1705 9.07615L35.6141 9.07581L0.00614508 9.07515L0.000140791 8.0763C0.00214352 7.69538 0.00247542 7.31447 0.000472719 6.93343C0.689186 6.95346 1.45702 6.9376 2.1504 6.93763L6.23761 6.9378L18.5774 6.938L53.0921 6.9363C52.4904 5.9706 51.79 4.95873 51.1552 4.00688L48.4912 -4.93674e-07C49.2661 0.569698 50.0862 1.12341 50.8756 1.67868L56.4132 5.58274C57.5243 6.36634 58.6988 7.16946 59.7852 7.98115Z" fill="#523F3F"/>
</svg>
