<svg width="38" height="42" viewBox="0 0 38 42" fill="none" xmlns="http://www.w3.org/2000/svg">
<path d="M16.8391 40.9998V36.1241L17.3627 35.6005C17.6085 35.3547 17.7465 35.0212 17.7465 34.674V29.6621C17.7465 29.1733 17.5528 28.7054 17.2074 28.36L13.8284 24.981C13.483 24.6356 13.0142 24.4419 12.5263 24.4419H11.7852L9.8216 22.4783C8.55972 21.2164 6.51385 21.2164 5.25197 22.4783C5.08658 22.6437 5.08658 22.9123 5.25197 23.0777L11.0204 28.8461" stroke="#C49E78" stroke-width="2" stroke-linecap="round" stroke-linejoin="round"/>
<path d="M8.36845 41.0001V37.0363C8.36845 35.6318 7.81107 34.2859 6.81783 33.2927L2.39257 28.8674C1.49619 27.971 0.995462 26.7548 1.00003 25.4884L1.05029 11.1746C1.05303 10.4619 1.63051 9.88623 2.34323 9.88623C3.7842 9.88623 4.95288 11.0549 4.95288 12.4959V22.7791" stroke="#C49E78" stroke-width="2" stroke-linecap="round" stroke-linejoin="round"/>
<path d="M20.6617 40.9998V36.1241L20.1382 35.6005C19.8924 35.3547 19.7544 35.0212 19.7544 34.674V29.6621C19.7544 29.1733 19.9481 28.7054 20.2935 28.36L23.6725 24.981C24.0179 24.6356 24.4867 24.4419 24.9746 24.4419H25.7157L27.6793 22.4783C28.9412 21.2164 30.987 21.2164 32.2489 22.4783C32.4143 22.6437 32.4143 22.9123 32.2489 23.0777L26.4805 28.8461" stroke="#C49E78" stroke-width="2" stroke-linecap="round" stroke-linejoin="round"/>
<path d="M29.1323 41V37.0361C29.1323 35.6317 29.6897 34.2858 30.6829 33.2925L35.1082 28.8673C36.0046 27.9709 36.5053 26.7547 36.5007 25.4883L36.4505 11.1745C36.4477 10.4618 35.8703 9.88611 35.1575 9.88611C33.7166 9.88611 32.5479 11.0548 32.5479 12.4958V22.779" stroke="#C49E78" stroke-width="2" stroke-linecap="round" stroke-linejoin="round"/>
<path d="M18.7504 7.93348C20.6651 7.93348 22.2172 6.38137 22.2172 4.46674C22.2172 2.55211 20.6651 1 18.7504 1C16.8358 1 15.2837 2.55211 15.2837 4.46674C15.2837 6.38137 16.8358 7.93348 18.7504 7.93348Z" stroke="#C49E78" stroke-width="2" stroke-linecap="round" stroke-linejoin="round"/>
<path d="M22.0023 17.6483H22.2289C23.2011 17.6483 23.9897 16.8598 23.9897 15.8875V13.2797C23.9897 11.0319 22.1677 9.21082 19.9208 9.21082H17.5816C15.3338 9.21082 13.5127 11.0328 13.5127 13.2797V15.8875C13.5127 16.8598 14.3013 17.6483 15.2735 17.6483H15.4992" stroke="#C49E78" stroke-width="2" stroke-linecap="round" stroke-linejoin="round"/>
<path d="M15.4985 12.5587V23.5839C15.4985 24.4821 16.2268 25.2095 17.1241 25.2095C18.0223 25.2095 18.7496 24.4812 18.7496 23.5839V18.8846" stroke="#C49E78" stroke-width="2" stroke-linecap="round" stroke-linejoin="round"/>
<path d="M22.0026 12.5587V23.5839C22.0026 24.4821 21.2743 25.2095 20.377 25.2095C19.4788 25.2095 18.7515 24.4812 18.7515 23.5839V18.8846" stroke="#C49E78" stroke-width="2" stroke-linecap="round" stroke-linejoin="round"/>
</svg>
