<svg width="38" height="42" viewBox="0 0 38 42" fill="none" xmlns="http://www.w3.org/2000/svg">
<path d="M36.351 21.5544C35.234 20.4373 33.423 20.4373 32.3059 21.5544L24.3358 29.5245H23.8709C24.1272 29.5245 24.3358 29.3168 24.3358 29.0596C24.3358 27.1031 22.7496 25.5177 20.7938 25.5177H17.75L17.1762 24.9439C16.7973 24.565 16.2839 24.353 15.7483 24.353H10.5112C9.97569 24.353 9.46228 24.5658 9.0834 24.9439L5.19921 28.828C4.93016 29.0971 4.77861 29.4624 4.77861 29.8438V30.6561L1 34.4347L7.56531 41L10.9088 37.6564C11.8233 36.742 13.0638 36.2278 14.3571 36.2278H21.601C22.9897 36.2278 24.3213 35.6735 25.2996 34.6884L36.3544 23.556C36.9044 23.0018 36.9027 22.1078 36.351 21.5552V21.5544Z" stroke="#C49E78" stroke-width="2" stroke-linecap="round" stroke-linejoin="round"/>
<path d="M14.5688 29.5244H23.8715" stroke="#C49E78" stroke-width="2" stroke-linecap="round" stroke-linejoin="round"/>
<path d="M30.3589 3.06832C27.6012 0.310561 23.1295 0.310561 20.3709 3.06832L19.7315 3.70773C19.4488 3.99041 18.9908 3.99041 18.7089 3.70773L18.0695 3.06832C15.3118 0.310561 10.8401 0.310561 8.0815 3.06832C5.32374 5.82607 5.32374 10.2977 8.0815 13.0563L18.4995 23.4743C18.898 23.8728 19.5433 23.8728 19.9418 23.4743L30.3598 13.0563C33.1176 10.2986 33.1176 5.82692 30.3598 3.06832H30.3589Z" stroke="#C49E78" stroke-width="2" stroke-linecap="round" stroke-linejoin="round"/>
<path d="M19.2198 9.42244C20.3168 9.42244 21.2061 8.53311 21.2061 7.43607C21.2061 6.33903 20.3168 5.44971 19.2198 5.44971C18.1227 5.44971 17.2334 6.33903 17.2334 7.43607C17.2334 8.53311 18.1227 9.42244 19.2198 9.42244Z" stroke="#C49E78" stroke-width="2" stroke-linecap="round" stroke-linejoin="round"/>
<path d="M21.0832 14.989H21.2134C21.7703 14.989 22.2224 14.5369 22.2224 13.9801V12.4859C22.2224 11.1985 21.1785 10.1538 19.8903 10.1538H18.5493C17.262 10.1538 16.2173 11.1977 16.2173 12.4859V13.9801C16.2173 14.5369 16.6694 14.989 17.2262 14.989H17.3556" stroke="#C49E78" stroke-width="2" stroke-linecap="round" stroke-linejoin="round"/>
<path d="M21.0831 12.073V18.3905C21.0831 18.9048 20.6659 19.322 20.1517 19.322C19.6374 19.322 19.2202 18.9048 19.2202 18.3905V15.6975" stroke="#C49E78" stroke-width="2" stroke-linecap="round" stroke-linejoin="round"/>
<path d="M17.3564 12.073V18.3905C17.3564 18.9048 17.7736 19.322 18.2879 19.322C18.8022 19.322 19.2194 18.9048 19.2194 18.3905V15.6975" stroke="#C49E78" stroke-width="2" stroke-linecap="round" stroke-linejoin="round"/>
</svg>
