<svg width="53" height="42" viewBox="0 0 53 42" fill="none" xmlns="http://www.w3.org/2000/svg">
<path d="M24.5742 16.6278H31.8026C32.6962 16.6278 33.4214 17.353 33.4214 18.2466V19.4427C33.4214 20.3364 32.6962 21.0615 31.8026 21.0615H24.5742V16.6267V16.6278Z" stroke="#C49E78" stroke-width="2" stroke-linecap="round" stroke-linejoin="round"/>
<path d="M24.5742 21.0626H31.8026C32.6962 21.0626 33.4214 21.7878 33.4214 22.6814V23.8775C33.4214 24.7712 32.6962 25.4964 31.8026 25.4964H24.5742V21.0615V21.0626Z" stroke="#C49E78" stroke-width="2" stroke-linecap="round" stroke-linejoin="round"/>
<path d="M31.8022 25.4944H23.9914C23.0973 25.4944 22.3726 26.2192 22.3726 27.1132V28.3104C22.3726 29.2045 23.0973 29.9292 23.9914 29.9292H31.8022C32.6963 29.9292 33.421 29.2045 33.421 28.3104V27.1132C33.421 26.2192 32.6963 25.4944 31.8022 25.4944Z" stroke="#C49E78" stroke-width="2" stroke-linecap="round" stroke-linejoin="round"/>
<path d="M31.8022 29.9292H23.9914C23.0973 29.9292 22.3726 30.654 22.3726 31.548V32.7452C22.3726 33.6393 23.0973 34.364 23.9914 34.364H31.8022C32.6963 34.364 33.421 33.6393 33.421 32.7452V31.548C33.421 30.654 32.6963 29.9292 31.8022 29.9292Z" stroke="#C49E78" stroke-width="2" stroke-linecap="round" stroke-linejoin="round"/>
<path d="M23.643 34.41H15.6498C14.7014 34.41 13.7789 34.1557 12.9732 33.6858C12.2287 33.2514 11.3876 33.01 10.5262 33.01H1.95906C1.42911 33.01 1 32.5809 1 32.0509V19.3365C1 18.8065 1.42911 18.3774 1.95906 18.3774H8.70572C10.0156 18.3774 11.2718 17.8571 12.1987 16.9302L14.8076 14.3212C15.2915 13.8374 15.948 13.5649 16.6324 13.5649H21.9931C23.4188 13.5649 24.5752 14.7214 24.5752 16.1471V24.0663C24.5752 24.8569 23.9283 25.4985 23.1388 25.492C22.3685 25.4867 21.6702 25.1713 21.1638 24.6649C20.6532 24.1532 20.3367 23.4473 20.3367 22.6674V18.4761" stroke="#C49E78" stroke-width="2" stroke-linecap="round" stroke-linejoin="round"/>
<path d="M14.3838 25.4975C16.6978 25.4975 18.8669 24.4741 20.3366 22.7458" stroke="#C49E78" stroke-width="2" stroke-linecap="round" stroke-linejoin="round"/>
<path d="M41.98 23.9783V14.3491" stroke="#C49E78" stroke-width="2" stroke-linecap="round" stroke-linejoin="round"/>
<path d="M33.5714 6.21436C32.9374 7.1895 33.049 8.50687 33.9051 9.36294L39.2121 14.6699" stroke="#C49E78" stroke-width="2" stroke-linecap="round" stroke-linejoin="round"/>
<path d="M41.9802 13.8782V13.8675L33.7306 5.61788C33.1534 5.03858 32.8638 4.28228 32.8638 3.52383C32.8638 2.76538 33.1534 2.00908 33.7306 1.42978C34.3024 0.857994 35.2282 0.856921 35.8021 1.42549L47.3247 12.8687C48.3439 13.8825 48.9189 15.261 48.9189 16.6975V26.287L51.0869 28.455C51.2618 28.6299 51.3605 28.8681 51.3605 29.1159V40.0635C51.3605 40.896 50.3532 41.3133 49.7642 40.7243L43.1506 34.1107H42.3095C41.9158 34.1107 41.5382 33.9541 41.2593 33.6762L37.2385 29.6555C36.8459 29.265 36.6271 28.7329 36.6271 28.1793V22.7554C36.6271 22.2019 36.847 21.6708 37.2385 21.2803L37.8339 20.685V17.5353C37.8339 16.5226 38.2437 15.6065 38.9078 14.9424C39.5707 14.2784 40.4869 13.8686 41.4996 13.8686C41.7656 13.8686 41.9802 14.0842 41.9802 14.3502V13.8793V13.8782Z" stroke="#C49E78" stroke-width="2" stroke-linecap="round" stroke-linejoin="round"/>
</svg>
