<svg width="35" height="42" viewBox="0 0 35 42" fill="none" xmlns="http://www.w3.org/2000/svg">
<path d="M9.3873 1H32.486C33.2318 1 33.8373 1.60455 33.8373 2.35129V39.6487C33.8373 40.3945 33.2327 41 32.486 41H2.35129C1.60552 41 1 40.3954 1 39.6487V9.38633" stroke="#C49E78" stroke-width="2" stroke-linecap="round" stroke-linejoin="round"/>
<path d="M1.00098 9.38633H7.5369C8.55932 9.38633 9.38828 8.55737 9.38828 7.53495V1L1.00098 9.3873V9.38633Z" stroke="#C49E78" stroke-width="2" stroke-linecap="round" stroke-linejoin="round"/>
<path d="M10.9378 22.9709H5.78027V28.1285H10.9378V22.9709Z" stroke="#C49E78" stroke-width="2" stroke-linecap="round" stroke-linejoin="round"/>
<path d="M10.9378 31.0767H5.78027V36.2342H10.9378V31.0767Z" stroke="#C49E78" stroke-width="2" stroke-linecap="round" stroke-linejoin="round"/>
<path d="M10.9378 31.0767H5.78027V36.2342H10.9378V31.0767Z" stroke="#C49E78" stroke-width="2" stroke-linecap="round" stroke-linejoin="round"/>
<path d="M13.1465 25.5498H29.0573" stroke="#C49E78" stroke-width="2" stroke-linecap="round" stroke-linejoin="round"/>
<path d="M13.1465 33.6553H29.0573" stroke="#C49E78" stroke-width="2" stroke-linecap="round" stroke-linejoin="round"/>
<path d="M6.91016 34.0935L7.56114 34.7445L9.73946 32.5662" stroke="#C49E78" stroke-width="2" stroke-linecap="round" stroke-linejoin="round"/>
<path d="M6.91016 25.9878L7.56114 26.6388L9.73946 24.4604" stroke="#C49E78" stroke-width="2" stroke-linecap="round" stroke-linejoin="round"/>
<path d="M13.1465 28.1284H19.4183" stroke="#C49E78" stroke-width="2" stroke-linecap="round" stroke-linejoin="round"/>
<path d="M13.1465 36.2341H19.4183" stroke="#C49E78" stroke-width="2" stroke-linecap="round" stroke-linejoin="round"/>
<path d="M11.1644 15.1726H5.55518V19.4093H11.1644V15.1726Z" stroke="#C49E78" stroke-width="2" stroke-linecap="round" stroke-linejoin="round"/>
<path d="M8.35915 11.9717L12.2002 15.1724H4.51904L8.35915 11.9717Z" stroke="#C49E78" stroke-width="2" stroke-linecap="round" stroke-linejoin="round"/>
<path d="M18.541 11.845C16.0687 11.845 14.0635 9.84078 14.0635 7.36744C14.0635 4.8941 16.0677 2.88989 18.541 2.88989C21.0144 2.88989 23.0186 4.8941 23.0186 7.36744C23.0186 9.84078 21.0144 11.845 18.541 11.845Z" stroke="#C49E78" stroke-width="2" stroke-linecap="round" stroke-linejoin="round"/>
<path d="M18.541 4.62622V5.5432" stroke="#C49E78" stroke-width="2" stroke-linecap="round" stroke-linejoin="round"/>
<path d="M19.7981 6.46431V6.2873C19.7981 5.8762 19.4654 5.54346 19.0543 5.54346H18.027C17.6159 5.54346 17.2832 5.8762 17.2832 6.2873V6.72451C17.2832 7.1356 17.6159 7.46835 18.027 7.46835H19.0543C19.4654 7.46835 19.7981 7.80109 19.7981 8.21219V8.4482C19.7981 8.8593 19.4654 9.19204 19.0543 9.19204H18.027C17.6159 9.19204 17.2832 8.8593 17.2832 8.4482" stroke="#C49E78" stroke-width="2" stroke-linecap="round" stroke-linejoin="round"/>
<path d="M18.541 9.19189V10.1098" stroke="#C49E78" stroke-width="2" stroke-linecap="round" stroke-linejoin="round"/>
<path d="M13.1465 16.5403H29.0573" stroke="#C49E78" stroke-width="2" stroke-linecap="round" stroke-linejoin="round"/>
<path d="M13.1465 19.1191H19.4183" stroke="#C49E78" stroke-width="2" stroke-linecap="round" stroke-linejoin="round"/>
</svg>
