<svg width="47" height="42" viewBox="0 0 47 42" fill="none" xmlns="http://www.w3.org/2000/svg">
<path d="M21.0497 22.998H3.34674C2.70371 22.998 2.44688 22.1671 2.97875 21.8049L20.0271 10.1767C20.4613 9.88057 21.0487 10.1911 21.0487 10.7162V22.998H21.0497Z" stroke="#C49E78" stroke-width="2" stroke-linecap="round" stroke-linejoin="round"/>
<path d="M5.46143 22.9979H21.0503V40.9998H6.115C5.75467 40.9998 5.46143 40.7066 5.46143 40.3463V22.9979Z" stroke="#C49E78" stroke-width="2" stroke-linecap="round" stroke-linejoin="round"/>
<path d="M14.0474 26.6942H9.6775C9.31654 26.6942 9.02393 26.9868 9.02393 27.3478V30.2678C9.02393 30.6287 9.31654 30.9213 9.6775 30.9213H14.0474C14.4084 30.9213 14.701 30.6287 14.701 30.2678V27.3478C14.701 26.9868 14.4084 26.6942 14.0474 26.6942Z" stroke="#C49E78" stroke-width="2" stroke-linecap="round" stroke-linejoin="round"/>
<path d="M21.0501 40.9999H17.605V27.3478C17.605 26.9865 17.8973 26.6942 18.2585 26.6942H21.0501" stroke="#C49E78" stroke-width="2" stroke-linecap="round" stroke-linejoin="round"/>
<path d="M25.4487 22.998H43.1507C43.7937 22.998 44.0506 22.1671 43.5187 21.8049L26.4703 10.1767C26.0362 9.88057 25.4487 10.1911 25.4487 10.7162V22.998Z" stroke="#C49E78" stroke-width="2" stroke-linecap="round" stroke-linejoin="round"/>
<path d="M40.3835 40.9999H25.4482V22.998L41.0371 22.998V40.3463C41.0371 40.7066 40.7439 40.9999 40.3835 40.9999Z" stroke="#C49E78" stroke-width="2" stroke-linecap="round" stroke-linejoin="round"/>
<path d="M32.4506 30.9203H36.8206C37.1815 30.9203 37.4741 30.6277 37.4741 30.2667V27.3467C37.4741 26.9858 37.1815 26.6932 36.8206 26.6932H32.4506C32.0897 26.6932 31.7971 26.9858 31.7971 27.3467V30.2667C31.7971 30.6277 32.0897 30.9203 32.4506 30.9203Z" stroke="#C49E78" stroke-width="2" stroke-linecap="round" stroke-linejoin="round"/>
<path d="M25.4482 40.9998H28.8934V27.3477C28.8934 26.9864 28.6011 26.6941 28.2398 26.6941H25.4482" stroke="#C49E78" stroke-width="2" stroke-linecap="round" stroke-linejoin="round"/>
<path d="M5.57419 5.51557C6.82113 5.51557 7.83198 4.50473 7.83198 3.25779C7.83198 2.01085 6.82113 1 5.57419 1C4.32725 1 3.31641 2.01085 3.31641 3.25779C3.31641 4.50473 4.32725 5.51557 5.57419 5.51557Z" stroke="#C49E78" stroke-width="2" stroke-linecap="round" stroke-linejoin="round"/>
<path d="M8.41255 13.6535H8.48347C9.40249 13.6535 10.1471 12.9089 10.1471 11.9899V9.83945C10.1471 7.87779 8.5563 6.28699 6.59463 6.28699H4.55247C2.5908 6.28699 1 7.87779 1 9.83945V11.9899C1 12.9089 1.74461 13.6535 2.66363 13.6535H2.73455" stroke="#C49E78" stroke-width="2" stroke-linecap="round" stroke-linejoin="round"/>
<path d="M2.73486 15.8184V9.21082" stroke="#C49E78" stroke-width="2" stroke-linecap="round" stroke-linejoin="round"/>
<path d="M8.4126 9.21082V15.8184" stroke="#C49E78" stroke-width="2" stroke-linecap="round" stroke-linejoin="round"/>
<path d="M40.9243 5.51557C42.1712 5.51557 43.1821 4.50473 43.1821 3.25779C43.1821 2.01085 42.1712 1 40.9243 1C39.6773 1 38.6665 2.01085 38.6665 3.25779C38.6665 4.50473 39.6773 5.51557 40.9243 5.51557Z" stroke="#C49E78" stroke-width="2" stroke-linecap="round" stroke-linejoin="round"/>
<path d="M43.8346 13.6536C44.7536 13.6536 45.4982 12.909 45.4982 11.9899V10.861C45.4982 8.33492 43.4503 6.28796 40.9251 6.28796C38.399 6.28796 36.3521 8.33588 36.3521 10.861V11.9899C36.3521 12.909 37.0967 13.6536 38.0157 13.6536" stroke="#C49E78" stroke-width="2" stroke-linecap="round" stroke-linejoin="round"/>
<path d="M37.7515 15.8184L38.5565 9.21082" stroke="#C49E78" stroke-width="2" stroke-linecap="round" stroke-linejoin="round"/>
<path d="M43.292 9.21082L44.0979 15.8184" stroke="#C49E78" stroke-width="2" stroke-linecap="round" stroke-linejoin="round"/>
</svg>
