<svg width="52" height="52" viewBox="0 0 52 52" fill="none" xmlns="http://www.w3.org/2000/svg">
<path d="M25.1767 41.9567L15.7828 27.9552C10.6018 20.2332 15.7691 9.72608 25.0567 9.2547C25.2861 9.24313 25.5176 9.23682 25.7501 9.23682C25.9827 9.23682 26.2142 9.24313 26.4435 9.2547C35.7312 9.72503 40.8985 20.2332 35.7175 27.9552L26.3236 41.9567C26.05 42.365 25.4503 42.365 25.1767 41.9567Z" stroke="#C49E78" stroke-width="1.5" stroke-linecap="round" stroke-linejoin="round"/>
<path d="M25.7502 27.8247C29.6727 27.8247 32.8525 24.6449 32.8525 20.7224C32.8525 16.7999 29.6727 13.6201 25.7502 13.6201C21.8277 13.6201 18.6479 16.7999 18.6479 20.7224C18.6479 24.6449 21.8277 27.8247 25.7502 27.8247Z" stroke="#C49E78" stroke-width="1.5" stroke-linecap="round" stroke-linejoin="round"/>
<path d="M25.75 50.75C39.5571 50.75 50.75 39.5571 50.75 25.75C50.75 11.9429 39.5571 0.75 25.75 0.75C11.9429 0.75 0.75 11.9429 0.75 25.75C0.75 39.5571 11.9429 50.75 25.75 50.75Z" stroke="#C49E78" stroke-width="1.5" stroke-linecap="round" stroke-linejoin="round"/>
</svg>
