<svg width="34" height="42" viewBox="0 0 34 42" fill="none" xmlns="http://www.w3.org/2000/svg">
<path d="M32.6309 7.57864V40.3819C32.6309 40.7234 32.3542 41 32.0128 41H1.61811C1.27665 41 1 40.7234 1 40.3819V1.61811C1 1.27665 1.27665 1 1.61811 1H26.0532" stroke="#C49E78" stroke-width="2" stroke-linecap="round" stroke-linejoin="round"/>
<path d="M6.21092 9.82858C7.62075 9.82858 8.76364 8.68569 8.76364 7.27586C8.76364 5.86604 7.62075 4.72314 6.21092 4.72314C4.80109 4.72314 3.6582 5.86604 3.6582 7.27586C3.6582 8.68569 4.80109 9.82858 6.21092 9.82858Z" stroke="#C49E78" stroke-width="2" stroke-linecap="round" stroke-linejoin="round"/>
<path d="M9.30076 9.82858C10.7106 9.82858 11.8535 8.68569 11.8535 7.27586C11.8535 5.86604 10.7106 4.72314 9.30076 4.72314C7.89094 4.72314 6.74805 5.86604 6.74805 7.27586C6.74805 8.68569 7.89094 9.82858 9.30076 9.82858Z" stroke="#C49E78" stroke-width="2" stroke-linecap="round" stroke-linejoin="round"/>
<path d="M4.10352 14.3884H29.5282" stroke="#C49E78" stroke-width="2" stroke-linecap="round" stroke-linejoin="round"/>
<path d="M4.10352 17.8193H10.1743" stroke="#C49E78" stroke-width="2" stroke-linecap="round" stroke-linejoin="round"/>
<path d="M4.10352 21.2505H27.2859" stroke="#C49E78" stroke-width="2" stroke-linecap="round" stroke-linejoin="round"/>
<path d="M4.10352 24.6816H13.9362" stroke="#C49E78" stroke-width="2" stroke-linecap="round" stroke-linejoin="round"/>
<path d="M16.2441 24.6816H23.3703" stroke="#C49E78" stroke-width="2" stroke-linecap="round" stroke-linejoin="round"/>
<path d="M29.5275 24.6816H26.0762" stroke="#C49E78" stroke-width="2" stroke-linecap="round" stroke-linejoin="round"/>
<path d="M12.813 17.8193H20.6104" stroke="#C49E78" stroke-width="2" stroke-linecap="round" stroke-linejoin="round"/>
<path d="M29.5277 17.8193H22.5776" stroke="#C49E78" stroke-width="2" stroke-linecap="round" stroke-linejoin="round"/>
<path d="M4.99463 36.5649H13.6975" stroke="#C49E78" stroke-width="2" stroke-linecap="round" stroke-linejoin="round"/>
<path d="M19.9331 36.5649H28.6359" stroke="#C49E78" stroke-width="2" stroke-linecap="round" stroke-linejoin="round"/>
<path d="M32.6309 7.57864H27.3233C26.621 7.57864 26.0522 7.00987 26.0522 6.3076V1L32.6309 7.57864Z" stroke="#C49E78" stroke-width="2" stroke-linecap="round" stroke-linejoin="round"/>
</svg>
