<svg width="42" height="42" viewBox="0 0 42 42" fill="none" xmlns="http://www.w3.org/2000/svg">
<path d="M17.6806 39.0105H4.41605C4.11191 39.0105 3.8652 38.7638 3.8652 38.4596V18.5528C3.8652 18.2487 3.6185 18.002 3.31435 18.002H1.55352C1.01774 18.002 0.797404 17.3137 1.23432 17.0029L17.6806 5.30518" stroke="#C49E78" stroke-width="2" stroke-linecap="round" stroke-linejoin="round"/>
<path d="M24.189 5.30425L27.4818 7.64606C27.8462 7.905 28.3519 7.64511 28.3519 7.1969V3.54059C28.3519 3.23645 28.5986 2.98975 28.9027 2.98975H33.5694C33.8735 2.98975 34.1202 3.23645 34.1202 3.54059V12.0839C34.1202 12.2619 34.2069 12.4295 34.3519 12.5321L40.6353 17.002C41.0722 17.3127 40.8528 18.001 40.3161 18.001H38.5553C38.2511 18.001 38.0044 18.2478 38.0044 18.5519V38.4587C38.0044 38.7628 37.7577 39.0095 37.4536 39.0095H24.189" stroke="#C49E78" stroke-width="2" stroke-linecap="round" stroke-linejoin="round"/>
<path d="M18.5622 22.3428H15.1582V39.0104H17.6808" stroke="#C49E78" stroke-width="2" stroke-linecap="round" stroke-linejoin="round"/>
<path d="M24.189 39.0104H26.7116V22.3428H23.3076" stroke="#C49E78" stroke-width="2" stroke-linecap="round" stroke-linejoin="round"/>
<path d="M20.9351 1V1.9887" stroke="#C49E78" stroke-width="2" stroke-linecap="round" stroke-linejoin="round"/>
<path d="M20.9351 3.9895V39.0112" stroke="#C49E78" stroke-width="2" stroke-linecap="round" stroke-linejoin="round" stroke-dasharray="4 4"/>
<path d="M20.9351 40.0112V40.9999" stroke="#C49E78" stroke-width="2" stroke-linecap="round" stroke-linejoin="round"/>
</svg>
