<svg width="51" height="51" viewBox="0 0 51 51" fill="none" xmlns="http://www.w3.org/2000/svg">
<g opacity="0.6">
<path d="M35.0456 2.50342C33.7178 2.50342 32.4443 3.03089 31.5054 3.96979C30.5665 4.9087 30.0391 6.18213 30.0391 7.50994V22.5295C30.0391 23.8573 30.5665 25.1307 31.5054 26.0696C32.4443 27.0085 33.7178 27.536 35.0456 27.536C35.7095 27.536 36.3462 27.7997 36.8157 28.2692C37.2851 28.7387 37.5488 29.3754 37.5488 30.0393V32.5425C37.5488 33.8703 37.0214 35.1438 36.0825 36.0827C35.1436 37.0216 33.8701 37.549 32.5423 37.549C31.8784 37.549 31.2417 37.8128 30.7723 38.2822C30.3028 38.7517 30.0391 39.3884 30.0391 40.0523V45.0588C30.0391 45.7227 30.3028 46.3595 30.7723 46.8289C31.2417 47.2984 31.8784 47.5621 32.5423 47.5621C36.5258 47.5621 40.346 45.9797 43.1628 43.163C45.9795 40.3463 47.5619 36.526 47.5619 32.5425V7.50994C47.5619 6.18213 47.0344 4.9087 46.0955 3.96979C45.1566 3.03089 43.8832 2.50342 42.5554 2.50342H35.0456Z" stroke="#C49E78" stroke-width="5.00652" stroke-linecap="round" stroke-linejoin="round"/>
<path d="M7.50994 2.50342C6.18213 2.50342 4.9087 3.03089 3.96979 3.96979C3.03089 4.9087 2.50342 6.18213 2.50342 7.50994V22.5295C2.50342 23.8573 3.03089 25.1307 3.96979 26.0696C4.9087 27.0085 6.18213 27.536 7.50994 27.536C8.17384 27.536 8.81056 27.7997 9.28001 28.2692C9.74946 28.7387 10.0132 29.3754 10.0132 30.0393V32.5425C10.0132 33.8703 9.48573 35.1438 8.54682 36.0827C7.60792 37.0216 6.33449 37.549 5.00668 37.549C4.34277 37.549 3.70606 37.8128 3.23661 38.2822C2.76715 38.7517 2.50342 39.3884 2.50342 40.0523V45.0588C2.50342 45.7227 2.76715 46.3594 3.23661 46.8289C3.70606 47.2984 4.34277 47.5621 5.00668 47.5621C8.99011 47.5621 12.8104 45.9797 15.6271 43.163C18.4438 40.3462 20.0262 36.526 20.0262 32.5425V7.50994C20.0262 6.18213 19.4988 4.9087 18.5599 3.96979C17.621 3.03089 16.3475 2.50342 15.0197 2.50342H7.50994Z" stroke="#C49E78" stroke-width="5.00652" stroke-linecap="round" stroke-linejoin="round"/>
</g>
</svg>
