<svg width="58" height="42" viewBox="0 0 58 42" fill="none" xmlns="http://www.w3.org/2000/svg">
<path d="M17.3166 10.428C19.92 10.428 22.0306 8.3175 22.0306 5.71402C22.0306 3.11054 19.92 1 17.3166 1C14.7131 1 12.6025 3.11054 12.6025 5.71402C12.6025 8.3175 14.7131 10.428 17.3166 10.428Z" stroke="#C49E78" stroke-width="2" stroke-linecap="round" stroke-linejoin="round"/>
<path d="M23.2432 27.4152H24.8251C25.9522 27.4152 26.8654 26.5021 26.8654 25.375V19.4539C26.8654 15.3581 23.5452 12.038 19.4494 12.038H15.1855C11.0897 12.038 7.76953 15.3581 7.76953 19.4539V25.375C7.76953 26.5021 8.68272 27.4152 9.80981 27.4152H11.3905" stroke="#C49E78" stroke-width="2" stroke-linecap="round" stroke-linejoin="round"/>
<path d="M11.3901 31.9342V18.14" stroke="#C49E78" stroke-width="2" stroke-linecap="round" stroke-linejoin="round"/>
<path d="M23.2427 18.14V31.9342" stroke="#C49E78" stroke-width="2" stroke-linecap="round" stroke-linejoin="round"/>
<path d="M40.6027 10.428C43.2062 10.428 45.3167 8.3175 45.3167 5.71402C45.3167 3.11054 43.2062 1 40.6027 1C37.9992 1 35.8887 3.11054 35.8887 5.71402C35.8887 8.3175 37.9992 10.428 40.6027 10.428Z" stroke="#C49E78" stroke-width="2" stroke-linecap="round" stroke-linejoin="round"/>
<path d="M46.6781 27.4152H48.1107C49.2378 27.4152 50.151 26.5021 50.151 25.375V21.5859C50.151 16.3124 45.8765 12.038 40.6031 12.038C35.3296 12.038 31.0552 16.3124 31.0552 21.5859V25.375C31.0552 26.5021 31.9684 27.4152 33.0954 27.4152H34.5281" stroke="#C49E78" stroke-width="2" stroke-linecap="round" stroke-linejoin="round"/>
<path d="M33.9795 31.9342L35.6601 18.14" stroke="#C49E78" stroke-width="2" stroke-linecap="round" stroke-linejoin="round"/>
<path d="M45.5474 18.14L47.2292 31.9342" stroke="#C49E78" stroke-width="2" stroke-linecap="round" stroke-linejoin="round"/>
<path d="M7.37086 39.5737H50.5504C50.8278 39.5737 51.0523 39.7981 51.0523 40.0755V40.4974C51.0523 40.9147 51.5318 41.1497 51.8608 40.8935L56.7265 37.1232C56.9862 36.9222 56.9862 36.5309 56.7265 36.3299L51.8608 32.5596C51.5318 32.3046 51.0523 32.5397 51.0523 32.9557V33.3776C51.0523 33.655 50.8278 33.8795 50.5504 33.8795H7.37086C7.0935 33.8795 6.86902 33.655 6.86902 33.3776V32.9557C6.86902 32.5385 6.38951 32.3034 6.06043 32.5596L1.1948 36.3299C0.935066 36.5309 0.935066 36.9222 1.1948 37.1232L6.06043 40.8935C6.38951 41.1485 6.86902 40.9135 6.86902 40.4974V40.0755C6.86902 39.7981 7.0935 39.5737 7.37086 39.5737Z" stroke="#C49E78" stroke-width="2" stroke-linecap="round" stroke-linejoin="round"/>
</svg>
